<mxfile host="app.diagrams.net" modified="2024-04-16T05:29:04.585Z" agent="Mozilla/5.0 (Windows NT 10.0; Win64; x64) AppleWebKit/537.36 (KHTML, like Gecko) Chrome/123.0.0.0 Safari/537.36" etag="sMUagQpTyY7ffhvFPXkY" version="24.2.5" type="github" pages="2">
  <diagram id="C5RBs43oDa-KdzZeNtuy" name="Page-1">
    <mxGraphModel dx="1434" dy="738" grid="1" gridSize="10" guides="1" tooltips="1" connect="1" arrows="1" fold="1" page="1" pageScale="1" pageWidth="827" pageHeight="1169" math="0" shadow="0">
      <root>
        <mxCell id="WIyWlLk6GJQsqaUBKTNV-0" />
        <mxCell id="WIyWlLk6GJQsqaUBKTNV-1" parent="WIyWlLk6GJQsqaUBKTNV-0" />
        <mxCell id="tXE0e38hGdNWlQ0zZdyC-2" value="" style="edgeStyle=orthogonalEdgeStyle;rounded=0;orthogonalLoop=1;jettySize=auto;html=1;" edge="1" parent="WIyWlLk6GJQsqaUBKTNV-1" source="WIyWlLk6GJQsqaUBKTNV-3" target="WIyWlLk6GJQsqaUBKTNV-6">
          <mxGeometry relative="1" as="geometry" />
        </mxCell>
        <mxCell id="WIyWlLk6GJQsqaUBKTNV-3" value="交易流水表" style="rounded=1;whiteSpace=wrap;html=1;fontSize=12;glass=0;strokeWidth=1;shadow=0;" parent="WIyWlLk6GJQsqaUBKTNV-1" vertex="1">
          <mxGeometry x="275" y="100" width="120" height="40" as="geometry" />
        </mxCell>
        <mxCell id="tXE0e38hGdNWlQ0zZdyC-4" value="" style="edgeStyle=orthogonalEdgeStyle;rounded=0;orthogonalLoop=1;jettySize=auto;html=1;" edge="1" parent="WIyWlLk6GJQsqaUBKTNV-1" source="WIyWlLk6GJQsqaUBKTNV-6">
          <mxGeometry relative="1" as="geometry">
            <mxPoint x="335" y="280" as="targetPoint" />
          </mxGeometry>
        </mxCell>
        <mxCell id="WIyWlLk6GJQsqaUBKTNV-6" value="是否已对账" style="rhombus;whiteSpace=wrap;html=1;shadow=0;fontFamily=Helvetica;fontSize=12;align=center;strokeWidth=1;spacing=6;spacingTop=-4;" parent="WIyWlLk6GJQsqaUBKTNV-1" vertex="1">
          <mxGeometry x="285" y="170" width="100" height="80" as="geometry" />
        </mxCell>
        <mxCell id="tXE0e38hGdNWlQ0zZdyC-8" value="" style="edgeStyle=orthogonalEdgeStyle;rounded=0;orthogonalLoop=1;jettySize=auto;html=1;" edge="1" parent="WIyWlLk6GJQsqaUBKTNV-1" source="WIyWlLk6GJQsqaUBKTNV-10" target="WIyWlLk6GJQsqaUBKTNV-11">
          <mxGeometry relative="1" as="geometry" />
        </mxCell>
        <mxCell id="WIyWlLk6GJQsqaUBKTNV-10" value="满足结算周期+频率" style="rhombus;whiteSpace=wrap;html=1;shadow=0;fontFamily=Helvetica;fontSize=12;align=center;strokeWidth=1;spacing=6;spacingTop=-4;" parent="WIyWlLk6GJQsqaUBKTNV-1" vertex="1">
          <mxGeometry x="285" y="280" width="100" height="70" as="geometry" />
        </mxCell>
        <mxCell id="tXE0e38hGdNWlQ0zZdyC-13" value="" style="edgeStyle=orthogonalEdgeStyle;rounded=0;orthogonalLoop=1;jettySize=auto;html=1;" edge="1" parent="WIyWlLk6GJQsqaUBKTNV-1" source="WIyWlLk6GJQsqaUBKTNV-11" target="tXE0e38hGdNWlQ0zZdyC-12">
          <mxGeometry relative="1" as="geometry" />
        </mxCell>
        <mxCell id="WIyWlLk6GJQsqaUBKTNV-11" value="找到商户关联的计费模版" style="rounded=1;whiteSpace=wrap;html=1;fontSize=12;glass=0;strokeWidth=1;shadow=0;" parent="WIyWlLk6GJQsqaUBKTNV-1" vertex="1">
          <mxGeometry x="165" y="390" width="120" height="40" as="geometry" />
        </mxCell>
        <mxCell id="tXE0e38hGdNWlQ0zZdyC-1" value="" style="edgeStyle=orthogonalEdgeStyle;rounded=0;orthogonalLoop=1;jettySize=auto;html=1;" edge="1" parent="WIyWlLk6GJQsqaUBKTNV-1" source="tXE0e38hGdNWlQ0zZdyC-0" target="WIyWlLk6GJQsqaUBKTNV-3">
          <mxGeometry relative="1" as="geometry" />
        </mxCell>
        <mxCell id="tXE0e38hGdNWlQ0zZdyC-0" value="商家清算定时任务" style="ellipse;whiteSpace=wrap;html=1;" vertex="1" parent="WIyWlLk6GJQsqaUBKTNV-1">
          <mxGeometry x="300" y="20" width="70" height="40" as="geometry" />
        </mxCell>
        <mxCell id="tXE0e38hGdNWlQ0zZdyC-5" value="yes" style="text;html=1;align=center;verticalAlign=middle;resizable=0;points=[];autosize=1;strokeColor=none;fillColor=none;" vertex="1" parent="WIyWlLk6GJQsqaUBKTNV-1">
          <mxGeometry x="320" y="248" width="40" height="30" as="geometry" />
        </mxCell>
        <mxCell id="tXE0e38hGdNWlQ0zZdyC-10" value="" style="edgeStyle=orthogonalEdgeStyle;rounded=0;orthogonalLoop=1;jettySize=auto;html=1;exitX=0.5;exitY=1;exitDx=0;exitDy=0;" edge="1" parent="WIyWlLk6GJQsqaUBKTNV-1" source="tXE0e38hGdNWlQ0zZdyC-9">
          <mxGeometry relative="1" as="geometry">
            <mxPoint x="348.31999999999994" y="357.51" as="sourcePoint" />
            <mxPoint x="414" y="420" as="targetPoint" />
          </mxGeometry>
        </mxCell>
        <mxCell id="tXE0e38hGdNWlQ0zZdyC-11" value="" style="edgeStyle=orthogonalEdgeStyle;rounded=0;orthogonalLoop=1;jettySize=auto;html=1;exitX=0.5;exitY=1;exitDx=0;exitDy=0;" edge="1" parent="WIyWlLk6GJQsqaUBKTNV-1" source="WIyWlLk6GJQsqaUBKTNV-10" target="tXE0e38hGdNWlQ0zZdyC-9">
          <mxGeometry relative="1" as="geometry">
            <mxPoint x="335" y="350" as="sourcePoint" />
            <mxPoint x="414" y="420" as="targetPoint" />
          </mxGeometry>
        </mxCell>
        <mxCell id="tXE0e38hGdNWlQ0zZdyC-15" value="" style="edgeStyle=orthogonalEdgeStyle;rounded=0;orthogonalLoop=1;jettySize=auto;html=1;" edge="1" parent="WIyWlLk6GJQsqaUBKTNV-1" source="tXE0e38hGdNWlQ0zZdyC-9" target="tXE0e38hGdNWlQ0zZdyC-14">
          <mxGeometry relative="1" as="geometry" />
        </mxCell>
        <mxCell id="tXE0e38hGdNWlQ0zZdyC-9" value="找到结构关联的计费模版" style="rounded=1;whiteSpace=wrap;html=1;fontSize=12;glass=0;strokeWidth=1;shadow=0;" vertex="1" parent="WIyWlLk6GJQsqaUBKTNV-1">
          <mxGeometry x="370" y="390" width="120" height="40" as="geometry" />
        </mxCell>
        <mxCell id="tXE0e38hGdNWlQ0zZdyC-17" value="" style="edgeStyle=orthogonalEdgeStyle;rounded=0;orthogonalLoop=1;jettySize=auto;html=1;" edge="1" parent="WIyWlLk6GJQsqaUBKTNV-1" source="tXE0e38hGdNWlQ0zZdyC-12" target="tXE0e38hGdNWlQ0zZdyC-16">
          <mxGeometry relative="1" as="geometry" />
        </mxCell>
        <mxCell id="tXE0e38hGdNWlQ0zZdyC-12" value="按照计费规则进行计算" style="rounded=1;whiteSpace=wrap;html=1;fontSize=12;glass=0;strokeWidth=1;shadow=0;" vertex="1" parent="WIyWlLk6GJQsqaUBKTNV-1">
          <mxGeometry x="165" y="480" width="120" height="40" as="geometry" />
        </mxCell>
        <mxCell id="tXE0e38hGdNWlQ0zZdyC-20" value="" style="edgeStyle=orthogonalEdgeStyle;rounded=0;orthogonalLoop=1;jettySize=auto;html=1;" edge="1" parent="WIyWlLk6GJQsqaUBKTNV-1" source="tXE0e38hGdNWlQ0zZdyC-14" target="tXE0e38hGdNWlQ0zZdyC-19">
          <mxGeometry relative="1" as="geometry" />
        </mxCell>
        <mxCell id="tXE0e38hGdNWlQ0zZdyC-14" value="按照计费规则进行计算" style="rounded=1;whiteSpace=wrap;html=1;fontSize=12;glass=0;strokeWidth=1;shadow=0;" vertex="1" parent="WIyWlLk6GJQsqaUBKTNV-1">
          <mxGeometry x="370" y="480" width="120" height="40" as="geometry" />
        </mxCell>
        <mxCell id="tXE0e38hGdNWlQ0zZdyC-16" value="计算后的数据回显到商家外部账户" style="rounded=1;whiteSpace=wrap;html=1;fontSize=12;glass=0;strokeWidth=1;shadow=0;" vertex="1" parent="WIyWlLk6GJQsqaUBKTNV-1">
          <mxGeometry x="165" y="565" width="120" height="40" as="geometry" />
        </mxCell>
        <mxCell id="tXE0e38hGdNWlQ0zZdyC-19" value="计算后的数据回显到机构外部账户" style="rounded=1;whiteSpace=wrap;html=1;fontSize=12;glass=0;strokeWidth=1;shadow=0;" vertex="1" parent="WIyWlLk6GJQsqaUBKTNV-1">
          <mxGeometry x="370" y="565" width="120" height="40" as="geometry" />
        </mxCell>
      </root>
    </mxGraphModel>
  </diagram>
  <diagram id="2A0io8Df8Tge1XQXQTOt" name="第 2 页">
    <mxGraphModel dx="1434" dy="738" grid="1" gridSize="10" guides="1" tooltips="1" connect="1" arrows="1" fold="1" page="1" pageScale="1" pageWidth="827" pageHeight="1169" math="0" shadow="0">
      <root>
        <mxCell id="0" />
        <mxCell id="1" parent="0" />
        <mxCell id="60Ieh_e1w46ytMVCkPok-1" value="" style="edgeStyle=orthogonalEdgeStyle;rounded=0;orthogonalLoop=1;jettySize=auto;html=1;" edge="1" parent="1" source="60Ieh_e1w46ytMVCkPok-2" target="60Ieh_e1w46ytMVCkPok-4">
          <mxGeometry relative="1" as="geometry" />
        </mxCell>
        <mxCell id="60Ieh_e1w46ytMVCkPok-2" value="循环保证金表" style="rounded=1;whiteSpace=wrap;html=1;fontSize=12;glass=0;strokeWidth=1;shadow=0;" vertex="1" parent="1">
          <mxGeometry x="275" y="100" width="120" height="40" as="geometry" />
        </mxCell>
        <mxCell id="60Ieh_e1w46ytMVCkPok-3" value="" style="edgeStyle=orthogonalEdgeStyle;rounded=0;orthogonalLoop=1;jettySize=auto;html=1;" edge="1" parent="1" source="60Ieh_e1w46ytMVCkPok-4">
          <mxGeometry relative="1" as="geometry">
            <mxPoint x="335" y="280" as="targetPoint" />
          </mxGeometry>
        </mxCell>
        <mxCell id="60Ieh_e1w46ytMVCkPok-4" value="解冻时间&amp;lt;当前时间" style="rhombus;whiteSpace=wrap;html=1;shadow=0;fontFamily=Helvetica;fontSize=12;align=center;strokeWidth=1;spacing=6;spacingTop=-4;" vertex="1" parent="1">
          <mxGeometry x="285" y="170" width="100" height="80" as="geometry" />
        </mxCell>
        <mxCell id="60Ieh_e1w46ytMVCkPok-9" value="" style="edgeStyle=orthogonalEdgeStyle;rounded=0;orthogonalLoop=1;jettySize=auto;html=1;" edge="1" parent="1" source="60Ieh_e1w46ytMVCkPok-10" target="60Ieh_e1w46ytMVCkPok-2">
          <mxGeometry relative="1" as="geometry" />
        </mxCell>
        <mxCell id="60Ieh_e1w46ytMVCkPok-10" value="保证金退还定时任务" style="ellipse;whiteSpace=wrap;html=1;" vertex="1" parent="1">
          <mxGeometry x="300" y="20" width="70" height="40" as="geometry" />
        </mxCell>
        <mxCell id="60Ieh_e1w46ytMVCkPok-11" value="yes" style="text;html=1;align=center;verticalAlign=middle;resizable=0;points=[];autosize=1;strokeColor=none;fillColor=none;" vertex="1" parent="1">
          <mxGeometry x="320" y="248" width="40" height="30" as="geometry" />
        </mxCell>
        <mxCell id="60Ieh_e1w46ytMVCkPok-22" value="" style="edgeStyle=orthogonalEdgeStyle;rounded=0;orthogonalLoop=1;jettySize=auto;html=1;" edge="1" parent="1" source="60Ieh_e1w46ytMVCkPok-15" target="60Ieh_e1w46ytMVCkPok-19">
          <mxGeometry relative="1" as="geometry" />
        </mxCell>
        <mxCell id="60Ieh_e1w46ytMVCkPok-15" value="找到解冻数据" style="rounded=1;whiteSpace=wrap;html=1;fontSize=12;glass=0;strokeWidth=1;shadow=0;" vertex="1" parent="1">
          <mxGeometry x="275" y="280" width="120" height="40" as="geometry" />
        </mxCell>
        <mxCell id="60Ieh_e1w46ytMVCkPok-19" value="修改外部分账户表里面的保证金户金额" style="rounded=1;whiteSpace=wrap;html=1;fontSize=12;glass=0;strokeWidth=1;shadow=0;" vertex="1" parent="1">
          <mxGeometry x="275" y="360" width="120" height="40" as="geometry" />
        </mxCell>
      </root>
    </mxGraphModel>
  </diagram>
</mxfile>
